<?xml version="1.0" encoding="utf-8"?>
<!-- Generator: Adobe Illustrator 16.0.0, SVG Export Plug-In . SVG Version: 6.00 Build 0)  -->
<!DOCTYPE svg PUBLIC "-//W3C//DTD SVG 1.1//EN" "http://www.w3.org/Graphics/SVG/1.1/DTD/svg11.dtd">
<svg version="1.1" id="Capa_1" xmlns="http://www.w3.org/2000/svg" xmlns:xlink="http://www.w3.org/1999/xlink" x="0px" y="0px"
	 width="792px" height="612px" viewBox="0 0 792 612" enable-background="new 0 0 792 612" xml:space="preserve">
<circle fill="#E88F02" cx="404.603" cy="311.787" r="209.847"/>
<path opacity="0.7" fill="#FFFFFF" d="M412.563,114.566c0,0,181.895,4.427,189.855,193.238
	C602.419,307.805,596.799,164.977,412.563,114.566z"/>
<path opacity="0.7" fill="#FFFFFF" d="M411.363,512.236c0,0-185.26-3.764-193.366-164.236
	C217.997,348,223.722,469.391,411.363,512.236z"/>
<g>
	<path fill="#FFFFFF" stroke="#FFFFFF" stroke-miterlimit="10" d="M361.496,184.598c15.335,43.078,31.001,84.849,46.99,127.924
		c-8.811,23.496-16.968,46.342-24.471,71.145c-1.307,0.977-0.982,4.242-3.266,5.223c-8.811-24.805-17.947-47.646-26.763-71.145
		c-4.24-8.813-6.198-17.949-10.442-26.761c-5.545,39.487-8.484,78.974-14.03,117.158c-0.653,0-0.979-0.652-0.979-1.959
		c-3.59,0-6.198-1.307-8.484,0l-0.979,0.98c-0.98,0.979-3.265,1.959-3.265,4.24c-0.979,5.219,1.959,11.75-2.284,15.992
		c-2.283,0-0.98-2.285-1.957-3.264c0-2.287-0.979-2.939-0.979-5.225c-3.592,0-6.202,0-8.488-1.305
		c-1.301-4.24-3.259-8.48-3.259-13.703c-0.98,4.242-1.959,9.463-4.244,15.008h-3.266c-2.281,0.98-4.239,0.98-5.219,0.98v15.012
		c-2.285-1.305-3.265-1.305-4.244-2.283c0.979-4.24-1.302-8.484,0-12.729c-1.302-3.592,0.327-6.525-3.26-7.506
		c0-0.979-0.98-1.953-0.98-3.26c-1.306,1.307-0.979,3.26-3.264,2.281c-0.98-0.975-0.98-3.262-2.286-4.24l-0.979,1.959
		c9.467-74.736,20.232-149.14,31.001-224.523H361.496z M288.069,330.47h-3.266c1.633,1.308,3.266,0.981,4.572-0.979
		c-1.634,0-2.286-0.65-2.286-2.279C287.089,328.514,288.069,329.49,288.069,330.47z M288.069,325.252
		c-0.98,0.978,1.306,4.238,2.285,3.262v-3.262H288.069z M290.354,321.988c0.975-0.98,0-3.266-0.979-3.266
		C288.069,319.701,289.375,321.988,290.354,321.988z M289.375,324.273h2.934v0.979h1.306c0.652,0,1.306-0.327,1.958-0.979
		c-2.284-1.307-3.916-1.307-6.197-1.307V324.273z M295.573,276.298c0.98,0,2.286,0.979,3.266,0.979
		c-0.98,2.286-2.939,0.979-5.224,0.979c-2.286,6.528-2.286,12.727-3.261,18.276c0.326,0,0.975,0.326,1.303,0.651
		c0.325,0.326,0.325,0.326,0.652,0.326c1.632,0,2.286-0.652,2.286-2.283v2.283h3.264v-7.504l0.98,0.977v-1.956h0.978v5.221
		c-0.653,0-0.978,0.326-0.978,0.653v0.326h6.198v-2.937l-5.22,1.958c0-0.653,0.653-1.632,2.281-3.265v-0.977
		c0.98,0,1.96,0.653,2.938,2.284c2.286,0,4.244,1.958,6.529,2.937c-0.979,1.305-2.285,2.283-2.285,3.263l2.285-0.98
		c0,0.327,0,0.327,0.323,0.655c0.326,0.325,0.653,0.977,0.653,1.63c0.98-1.63,2.285-2.285,3.264-2.285
		c-0.326,0.98-0.654,1.632-0.654,1.959c-0.325,0.981,0,1.307,1.634,0.326c0.979-0.979,0.652-1.305,0.979-1.63
		c0-0.328,0-0.328,0.326-0.655c0.98,0,1.959-0.652,2.938-2.283c-0.979-0.979-2.938-0.979-5.223-1.958
		c0.98,0.979,0.98,3.263,2.285,4.241l-2.285-0.978c0-0.652-0.326-1.305-0.654-1.631c-0.325-0.327-0.325-0.327-0.325-0.653
		c-0.327,0-0.327,0-0.652-0.326c-0.327-0.328-0.98-0.653-1.633-0.653c0.98-0.979,4.244-2.286,5.549,0h0.328
		c0.325,0,0.652-0.326,0.652-0.979l-0.652-0.653c-0.328-0.328-0.328-0.654-0.328-1.631c2.286,0,2.938-1.958,4.246-3.265
		c-1.634,0-2.612-0.326-3.265-0.977c0,2.284-0.98,5.219-3.265,5.219c0-2.284-2.284-2.935-3.264-4.242v-2.936l-1.302-0.653
		c-0.979-0.326-1.632-0.653-1.959-0.653c3.587-0.979,2.285-3.915,2.285-6.201v0.979c-3.591,0-4.243-1.956-5.223-3.261l-1.306,1.305
		c-0.978,0.977-2.938,2.935-5.22,1.956c0-0.979,0.98-0.979,2.281-1.956c-1.301,0-1.301-1.305-2.281-1.305
		C299.817,276.298,297.859,276.298,295.573,276.298z M291.329,402.92 M297.859,286.741c0,0.979-0.979,2.286-3.264,3.265
		c0,0.653-0.328,1.303-0.653,1.631c-0.327,0.326-0.327,0.326-0.327,0.653c-1.306-1.307-1.306-3.263-1.306-4.242
		C293.615,288.048,295.573,286.741,297.859,286.741z M305.037,322.967h-0.978h2.284v2.285h-1.306c0,0.978,2.286,0.978,3.265,0.978
		l-1.959,2.284c2.938,0,2.938-3.262,5.223-4.24h-2.285c-2.286-1.307-2.938-2.285-5.222-3.266
		C304.711,321.008,305.037,321.662,305.037,322.967z M306.342,286.741c-1.306-2.282-2.612-4.242,0.98-4.242l0.652,0.653
		c0.327,0.328,0.327,1.307,1.306,1.632v3.264v1.958c0-1.307-0.654-1.958-1.958-1.958l-0.654,0.651
		c-0.327,0.328-0.327,0.654-0.327,1.307V286.741z M312.542,335.689c1.958-0.977,3.264-0.977,4.244,0v-0.65
		c0-0.326-0.653-0.326-0.98-1.307h0.98v-2.281c-0.98,1.301-3.264,3.262-6.2,2.281C311.565,334.713,312.542,334.713,312.542,335.689z
		 M320.05,253.782c2.286,0,0.979-2.937,0-1.958C317.765,251.824,319.071,255.087,320.05,253.782z M324.291,219.842 M329.514,281.52
		c-0.979,0.979,1.305,2.285,2.285,3.264c2.281,0,3.261,1.957,4.239,3.264c0-2.284-0.978-3.264,0-4.243h-0.978
		c0-0.325-0.327-0.979-0.652-1.96l-0.655-1.304h5.551c0-1.631,0.326-2.61,0.979-3.264c-0.979,0-4.245-1.305-3.265,2.286
		C333.428,277.277,333.101,281.52,329.514,281.52z M333.753,293.269c0.98-0.653,1.307-1.307,1.307-2.286h-2.285
		c0-0.977,0.978-1.956,0.978-2.935l-1.955,1.958v-1.958c0,0.979-2.285,2.935-0.98,4.242
		C331.472,292.943,332.451,293.269,333.753,293.269z M331.799,294.248h3.261c0,0.653-0.327,1.305-0.652,1.632l-0.655,0.652h1.307
		c-1.307,3.589,1.958,3.263,2.938,4.244v-6.528c-0.98,0-0.98-0.979-1.96-0.979C333.753,294.248,332.775,294.248,331.799,294.248z
		 M335.06,231.592h0.978c2.286-2.286-2.285-4.569-3.263-2.286C333.428,230.285,334.08,230.938,335.06,231.592z M333.753,333.732
		c2.285,0,0-4.242-0.978-3.263C332.775,332.104,333.101,333.079,333.753,333.732z M341.263,279.563c0,0.978,0.325,2.936-1.958,1.957
		v3.264h0.979v-0.979c0.652,0,1.305-0.325,1.632-0.653l0.653-0.653c0,1.306,0,4.242-1.306,5.549
		c1.306-1.307,2.281-1.307,3.261-2.284c4.244,4.242,5.222,9.463,7.508,15.012l0.98-2.286c4.239,1.305,8.483,0,12.723,1.305
		c-0.979-1.305,0.327-3.263-1.955-4.568v1.305h-2.285c-0.98-1.631-2.286-2.284-3.264-2.284v-0.979c-2.286,0-2.939-0.979-5.22-0.979
		h3.259c-0.979-3.591-3.259-5.221-3.259-7.506h-3.266v-0.979h-0.978v-1.306c0.978,1.306,2.284,0,3.264-0.979
		c-0.98-0.979-3.264-0.979-4.244-0.979c0-0.652-0.327-1.305-0.652-1.631c-0.327-0.326-0.327-0.326-0.327-0.654
		c-1.307,1.307-1.307,2.285-2.285,3.264C343.222,280.216,342.243,279.563,341.263,279.563z M343.544,246.603h1.958
		c0-1.305,0-3.263-0.978-3.263C343.869,243.993,343.544,244.97,343.544,246.603z M343.544,252.803c2.938,2.284,3.265-3.265,0-3.265
		V252.803z M347.788,286.741c-0.979,0-4.244,0.328-3.264-1.957C345.502,283.805,347.788,284.459,347.788,286.741z M345.502,258.024
		c1.307-0.979,2.286-0.979,3.266-1.958c-1.307,0-2.286-0.326-3.266-0.979V258.024z M347.788,275.321c0.98-2.284,2.286-6.528,0-7.507
		C346.809,270.098,345.502,273.037,347.788,275.321z M349.746,255.087c1.306,0,1.306,0.979,2.286,0.979
		c-2.286,0.979,0,2.937,0,5.221c2.281,0.979,1.954-1.957,1.954-4.242c-0.325,0-0.325,0-0.65-0.326
		c-0.324-0.327-0.978-0.653-1.304-0.653c0.98,0,0.98-0.979,1.954-0.979H349.746z M353.012,249.538
		c0.974,1.307,0.974,2.286,2.28,3.265h-3.26c0.653,0.653,1.954,0.979,4.239,0.979c0,0.977,0.328,1.631,0.98,2.284
		c0-0.653-0.327-1.307-0.652-1.631c-0.328-0.326-0.328-0.326-0.328-0.653l0.98-0.979h-0.98v-1.958h-0.979v-1.307H353.012z
		 M352.032,275.321c2.281,0.977,4.239,1.956,5.219,2.935v-2.935H352.032z M356.271,298.49c-0.979,0-2.285,0.326-0.979-1.958
		C356.271,296.532,356.271,296.206,356.271,298.49z M369.326,230.611c0.326,0,0.653,0.327,0.653,0.98l2.284-0.98
		c-2.284-1.305-5.549-2.61-6.528,0.98c0-0.98-0.979-2.286-0.979-3.265c0,2.285-2.281,4.244-3.26,3.265v-0.98
		c0,0.327,0,0.327,0.326,0c0.327,0,0.653-0.326,0.653-1.305v-1.958v0.654c0,0.325-0.327,0.651-0.979,1.305
		c-0.98,0-1.958,1.305-3.264,2.286c1.306,2.282,5.222,0,7.503,0.979c0,2.284,1.959,0.979,4.244,2.284L369,232.571
		c0.652,0,1.306,0.326,1.632,0.654c0.328,0.326,0.328,0.326,0.653,0.326c0-0.326-0.325-0.979-0.653-1.305l-0.652-0.654
		c-0.327,0.326-0.979,0.326-1.306,0.326c-0.979,0-0.652-0.326,0.326-1.306H369.326z M363.781,314.48h-5.549h0.652
		c0.326,0,0.653,0.328,0.653,0.977h0.978C361.496,315.457,362.475,314.48,363.781,314.48c2.281,0.977,2.934,0.977,4.241,0.977
		c0-2.281-2.286-5.219,0-6.198c-2.286,0.979-3.916,4.242-7.506,3.263C361.496,313.501,362.475,313.501,363.781,314.48z
		 M379.771,305.996l0.979,2.283c0,0.979,0.98,1.959,1.959,4.242c1.632,0,2.934,0.654,4.24,1.959
		c-0.979,0.977-1.958,2.282-2.934,2.282l-1.307-1.306c-0.979,1.306-0.979,2.287-1.959,3.266h1.959v5.551
		c-0.979,0-2.938-1.307-4.245-1.307c2.286,3.59,3.918,3.263,7.506,4.244l0.652-0.654l1.631-1.305c0,0.978,0,3.262-1.304,3.262
		c-1.958,0.977-3.916,0.326-6.199-2.284h-2.286v-0.978v3.262c-2.285,0-4.239-1.303-5.219,0.977h-1.959
		c0-0.977,0.653-1.954,1.959-3.261c-0.98,0-3.265,3.261-4.244,0.981c0.979-0.981,0.979-2.938,0.979-4.244L369,324.273v-3.266
		c0,0.98-0.979,1.959-0.979,3.266c-2.286-1.307-1.307-3.266-1.307-5.551h-4.24c2.281-0.979,3.261-1.96,5.547-1.96
		c0,1.308-0.327,2.285-1.307,2.938c2.286,0,4.246-0.653,5.549-1.957c-3.59-2.287-7.182-1.308-10.768,0.979
		c-0.98-0.326-0.98-0.979-1.306-0.979h-0.652c0,5.223,2.937,10.77,5.218,15.008h0.979v4.244h0.979c1.307,0,2.286,0.979,3.265,0.979
		v-0.979c-2.285,0-1.958-1.957-3.265-4.244c-0.979-1.629-0.979-3.586,0-5.541c-2.285,0-2.934,1.303-4.24-0.981
		c2.281,0,4.24-0.978,6.525-0.978c-0.979,0-1.959,0.652-3.265,1.959c2.286,0,3.265,1.303,5.55,2.279
		c-0.653,0-1.306,0.328-1.633,0.654c-0.326,0.325-0.326,0.325-0.652,0.325c0,0.981,0.652,2.282,2.285,3.263
		c0,0.98-1.306,0.98-2.285,1.957h3.264c-0.979-2.283-0.979-2.938-0.979-4.238c0.979,0,1.959-0.981,4.239-1.961
		c0.98,0,2.938,1.961,4.246,1.961c-0.981,0.979-1.961,1.301-3.266,1.301c0.98,0,4.244,0.98,5.225-1.301l-5.225-1.961
		c2.284-3.586,4.244-0.977,5.225,0c0.979,0.979,3.261,1.961,4.239,3.262c0.979,2.287-0.979,1.961-1.954,2.938
		c0.651,0,1.627-0.65,2.934-1.957c3.263,1.634-0.979,7.834,2.284,9.467v-3.264h0.979c-2.284-2.285,0.327-4.896-1.959-7.184
		l1.307-1.629l0.652-0.653l-1.959-1.956l1.959-1.303v3.259h4.244v2.282c0.327,0.327,0.327,0.327,0.654,0
		c0.321,0,0.649-0.322,1.627-1.301l-0.652-0.652c-0.325-0.329-0.653-0.98-0.653-1.309l-0.976,0.979
		c-0.979-0.979-0.979-1.956-1.958-3.259h4.239v2.279h0.98v-3.261c0.978,0,0.978-1.956,2.286-3.263c-2.286-0.979-2.286-1.959,0-3.266
		c-1.309,0-2.286,1.307-3.267,1.307c0-2.285-1.306-5.223,0-7.507h-2.281c0.976-0.979,2.281-0.979,3.262-2.284
		c-0.98-0.979-3.262,0-4.24,1.305c-0.653,0-1.306-0.326-1.633-0.652l-0.652-0.652l-0.98,2.284c3.592-0.979,4.244,3.262,5.22,4.243
		h-2.934c0.979,0,0.979,1.957,0.979,3.264c-0.979-2.285-4.244-1.96-4.244-4.245c-0.98,0.981-1.959,0.329-3.264-1.306h4.242
		c0-2.281-1.304-4.24,0.98-5.219c0-2.938-4.243-1.959-4.243-4.242c-0.979,0-1.958,0.979-2.934,0.979h-2.285v-0.979H379.771z
		 M363.781,293.269c0-0.979-1.306-2.286-2.285-0.979C361.496,293.269,361.496,294.248,363.781,293.269z M364.756,322.967
		l-0.975,1.307l-0.652-0.653c-0.327-0.326-0.654-0.981-0.654-1.632h1.306l-0.652-1.307c-0.327-0.98-1.307-0.98-1.633-1.959
		C362.475,319.701,367.041,320.682,364.756,322.967z M365.735,290.006c0.979,0.977,2.286,2.284,2.286,3.263h-2.286
		c0,0.979,0.979,0.979,0.979,1.958c2.286-2.284,4.571-2.937,5.549-4.244l-0.979-1.956h1.959v-0.979
		c-2.284,0.979-3.265-2.284-4.244-2.284C366.714,286.741,366.714,289.027,365.735,290.006z M371.285,322.967 M373.244,272.056
		c3.587-0.979,4.241,3.265,5.219,4.242c1.308,2.286,3.267,0.979,4.245,1.958c-0.979-0.979-3.265-1.958-0.979-2.935
		c-1.634,0.977-2.94,0.324-4.244-1.305c2.285,0,3.59-0.328,4.244-0.979l2.285-1.96l-1.307-1.303c0,0.649-0.327,1.303-0.654,1.629
		c-0.324,0.328-0.324,0.328-0.324,0.653h-0.98c0,3.589-3.264-0.979-4.244-0.979c0-2.284,1.958-1.303,3.266-1.303h-2.285v-0.981
		c-0.98,0.981-1.961,0.981-3.262,2.284L373.244,272.056z M379.771,292.29c-1.633,0-2.612,0.326-3.266,0.979v-3.263l-2.281,2.284
		c0,0.326,0.321,0.979,0.648,1.305l0.652,0.653h-1.301l1.301,0.979c2.285-0.979,4.897-1.958,7.184-4.244
		c-0.979,0-2.612-0.651-4.245-1.956l1.308-0.979c-1.308,0-1.308,0.979-2.285,0.979C376.505,291.309,378.463,290.983,379.771,292.29z
		 M375.524,266.509c2.285,0,4.246,1.305,5.225,0c-0.979,0-2.286-0.979-3.264-0.979l-0.654-0.651
		c-0.326-0.326-0.326-0.653-0.326-1.305C375.852,264.225,375.524,265.204,375.524,266.509z M379.771,295.227
		c-1.308,1.305-2.285,1.305-3.266,2.283c3.591,0.98,7.183,0.98,10.443,0c-0.654-0.652-1.634-0.978-2.934-0.978
		c-1.307-1.305-1.307-2.284-1.307-3.263c-0.979,0.979-0.979,3.263-0.979,4.241C380.422,297.51,379.771,296.858,379.771,295.227z
		 M515.853,184.598c11.747,71.794,22.19,142.287,32.96,214.076c-1.958-0.98-4.569-0.98-7.503,0c-3.591,0.98-7.511,0.98-11.751,1.959
		v5.549h-7.506c0,2.939-0.98,5.873-0.98,9.465c-0.976-0.326-0.976-0.98-1.302-0.98h-0.655l-1.305-1.305h-2.939
		c-1.305,1.305-3.263,1.305-4.244,1.305c-1.3,2.281-1.954,1.955-4.237,1.955c0-0.975-1.307-1.955-1.307-3.26h-5.225v7.506h-0.975
		v-12.727c-2.284,0-3.264,0-5.549-0.979c2.285,0.979,3.265,0,3.265-2.287c-2.286-0.977-2.938-0.977-5.224-0.977
		c-5.219-37.529-9.463-74.08-15.009-112.916c-2.286,3.591-1.96,6.201-3.267,9.793c-11.422,30.022-22.19,59.065-32.959,90.392h-5.22
		v-2.279h-0.979c0.979,3.586-2.94,2.279-5.224,3.26c0,5.221,0,9.465,0.977,15.014h-0.977c0-2.287,0-5.223-1.307-7.508h-6.199
		c0-0.98-1.307-2.285-1.307-3.268c-2.938,2.287-1.958,6.205-1.958,9.795c-0.979-1.307-2.28-1.307-3.262-2.283v-5.225
		c-1.633,0-2.938,0.654-4.244,1.959v-3.264c-3.588-2.281-5.871-4.24-9.463-5.221l-3.264,3.262v-3.262
		c-3.587-0.98-8.484-0.98-9.465,3.262v11.752c-2.283-3.592-1.958-6.203-4.237-9.793c24.798-71.791,48.621-141.956,73.426-212.771
		H515.853z M391.191,321.988c1.306-2.94-0.326,0.979-1.959,0.979c0.979,2.285-0.98,2.285-3.264,2.285
		c0-0.979-0.654-1.958-1.954-3.264h2.934c-0.654,0-0.979,0.324-0.979,1.306v0.979c2.611,0,3.264-0.979,2.283-3.266
		C389.232,321.008,390.211,321.988,391.191,321.988z M384.99,317.744c1.958,0.979,1.958,1.957,0,3.264
		C384.015,319.701,384.015,318.723,384.99,317.744z M385.969,278.256c0-2.284,0-1.958-0.979-1.958
		C384.015,278.584,384.99,278.256,385.969,278.256z M390.211,284.784c0.98-0.979,0-4.243-0.979-3.264
		C386.948,282.499,389.232,285.764,390.211,284.784z M392.497,299.795c2.285-2.285,3.915-1.305,6.197-1.305
		c-0.978-0.98-0.978-3.263-1.958-4.242v2.284c-2.281,0.978-3.26-1.305-4.239-2.284C392.497,295.227,394.782,298.49,392.497,299.795z
		 M396.736,305.018c-1.306,0.979-3.26,1.957-3.26,4.241c2.282,0,2.936,0.979,5.218,0.979c-0.978,0.979-2.282,3.263,0,4.242
		c-2.282,0.977-0.978,2.282,0,3.264c1.309-0.981,1.309-2.936,1.309-5.223l-0.653-0.652c-0.328-0.324-0.655-0.979-0.655-1.631
		c1.309,0.979,3.266,0.979,4.244,2.283c0-1.631-0.979-3.263-2.936-4.242c-1.309,0-2.286,0.979-3.267,0.979V305.018z
		 M394.455,325.252h0.976v0.978h-0.976V325.252z M397.717,322.967l-0.653,0.653c-0.327,0.323-0.979,0.653-1.633,0.653
		C393.477,323.294,398.694,320.682,397.717,322.967z M401.96,358.207 M416.97,318.723h-1.301c-2.286,5.551-4.245,10.768-5.226,15.99
		c0.98,0.977,2.286,2.938,2.286,5.223c0-0.655,0-0.98,0.325-1.307l0.653-0.653c0-0.979-0.979-2.286-0.979-3.263
		c-0.327,0-0.327,0-0.653-0.328s-0.979-0.652-1.633-0.652c0-1.629,0.653-2.281,2.286-2.281c3.587-0.981,5.22-3.266,5.22-6.199
		h-1.305c-0.65,0-0.976-0.327-0.976-0.979v-2.285h3.259c-0.979,0-1.958-0.98-3.259-0.98c0-1.307,2.28-1.307,2.28-2.285
		s-0.979-1.96-0.979-3.266V318.723z M414.688,348.424c0.981,1.301,0.981,0,2.282,0c0.979-2.287,0-1.96-1.301-1.96
		C414.688,346.464,413.708,347.443,414.688,348.424z M423.172,297.51c0,0.98,1.308,2.285,1.308,3.267c2.283-2.286,0-4.244,0-5.549
		c1.307,0,1.958,0.653,1.958,2.283v-2.283c-0.979,0-0.979-0.979-1.958-1.958C424.479,295.553,424.151,296.858,423.172,297.51z
		 M428.72,307.627c0,0.979,0.324,1.305,0.977,1.632h-2.283h3.265c-0.981,2.286-3.265,2.937-4.24,5.222
		c0,0.977-0.979,2.282-0.979,3.264c0.979-0.981,1.955-2.287,4.238-2.287c0,2.287-0.977,4.244,0,5.551
		c2.286,0.98,1.961,1.959,1.961,4.244l1.305-0.979v1.956h-2.284c2.284,0.981,2.284,4.24,2.284,6.522h0.981
		c0.979,1.961,5.87,0.98,5.217,4.244c0,2.939-1.63,4.247-5.217,4.247c0.979-2.288,1.958-3.268,4.24-5.554
		c-0.328,0-0.981,0.328-1.957,0.653l-1.305,0.653l0.979-2.283h-1.958v-0.98h-2.286c1.305,0.98,1.305,1.957,2.286,3.264
		c-3.266,0.654,0.65,2.939,0,5.224c0.979,0,2.937-0.977,5.217-0.977c0,2.282-0.977,2.935-3.259,1.956v0.979l1.954,0.654
		c0.979,0.327,1.305,1.305,0.328,1.632h-2.282v0.979h1.301c0.653,0,1.305-0.324,1.958-0.979v-3.265l2.286,0.979
		c-1.305-2.283-0.325-3.916,1.958-6.202h-0.653c-0.323,0-0.323,0.327-0.323,0.979v-1.959h-2.286c0-2.283,1.305-3.264,4.244-2.283
		c-1.958-1.961-2.939-3.59-2.939-5.223c-2.286,0-1.305-0.977,0-2.279c-1.305,0-1.305-0.981-2.286-1.959
		c0.981,0.978,3.268,0,4.244-0.979h-1.958c0-3.592,0.981-5.226,0.981-8.816v-0.325c0-0.323,0.323-0.651,0.977-0.651l-3.263,0.977
		c0-0.977,1.305-1.956,1.305-2.936c-1.305,2.287-4.244,0.979-6.524,1.959l-0.979-1.959l1.958,0.979v-4.242
		c0,1.308-0.328,2.286-0.979,3.263c-0.979-1.305-0.979-3.263-0.979-4.242h-0.656c-0.325,0-0.325,0.326-0.325,0.979h-1.305h1.305
		c0.981,0.979,0.981,3.263,0,4.242c-1.305-2.284-1.959-5.222-4.242-6.526V307.627z M429.696,299.795
		c0.981-2.285-0.977-3.263-2.283-2.285C426.438,298.49,428.72,299.795,429.696,299.795z M431.657,344.178v-4.242
		c-2.286,1.308-1.961,4.242-1.961,6.528L431.657,344.178z M429.696,304.037h0.981v1.959h0.979c0.979,0,1.305,0.652,1.305,2.283
		v-4.242l1.96,0.98v1.957c0-0.979,0.979-1.957,0.979-2.938c-0.328,0.326-0.328,0.326-0.654,0c-0.325,0-0.979-0.325-1.304-1.304
		c0,0.979-0.328,1.304-0.656,1.304c-0.325,0.326-0.325,0.326-0.325,0c-0.654-0.979-1.305-1.304-2.284-0.979L429.696,304.037z
		 M431.657,271.077l2.286-1.303c0,2.282,1.304,4.242-0.981,3.263l-1.305-0.981h-0.979c0,1.306,0.651,1.96,2.284,1.96v3.261
		c1.96-0.979,3.918-0.979,6.198,0c-0.977,0.979-1.958,2.286-3.259,0.979c-0.979,1.307-0.979,2.285-1.958,2.285
		c0.65,0.653,0.979,1.632,0.979,3.264c0.979-0.979,4.238-6.854,5.22-2.285c0-0.979,1.305-3.264,2.286-4.243l-0.653,0.654
		c-0.328,0.325-0.653,0.325-1.633,0.325v-5.219c-1.958,2.935-5.22-4.57-4.24,0.979c-0.654-0.654-0.979-1.96-0.979-4.242l2.28,1.303
		v-2.284h0.981v3.263c0.651,0,0.977,0,1.305-0.326l0.653-0.653l1.305,1.96c0.981-1.634,0.328-2.939-1.305-4.244v-3.263
		c-2.286,0-3.915,0.979-6.198,0C433.943,266.509,433.287,268.467,431.657,271.077z M432.962,315.457
		c0.981-2.936,4.24,1.306,5.222,1.306l-0.981,0.981c0,2.283,0.981,2.938,0.981,5.223c-0.981,2.285-2.282,3.263-2.282,5.547
		c-0.979-1.303-4.244-3.262-1.958-5.547h1.958c-3.919,1.633,0.653-1.959,0-3.266c0-2.283-1.958,0-1.958,1.307h-3.266v-3.264
		c2.284,0,3.591-0.326,4.244-0.981L432.962,315.457z M439.16,298.49c-0.977-0.98-0.977-1.958-1.958-3.263
		c-0.976,1.957-2.28,2.283-3.259,1.305v3.263c2.937,0.981,6.198,0.981,9.461,0c-0.977,0-1.958-1.305-3.263-2.285
		c1.958,0.98,3.263,0.655,4.244-0.978h-4.244l2.286-2.284h-2.286c-0.981,0-0.981-0.979-1.958-0.979
		c-2.282-0.979-1.304,3.263,0.977,1.958V298.49z M440.142,266.509c0,2.284,3.263,0,4.244,0v2.284l-1.958-0.979v5.223
		c3.588,0,3.262-1.96,3.262-4.244c2.281,0.981,4.239,2.284,5.221,3.263v-2.282c0.979,1.303,2.286,1.303,3.263,2.282v-4.242
		c0-2.284-0.977-3.262,0-5.547c-2.284,0-3.263-0.979-5.547,0c1.631-0.979,2.284-1.959,2.284-2.936l-2.284-1.307v4.243
		c-1.954,0-3.262-0.326-4.24-0.979v2.286h-1.958c0.977-1.306,0.977-3.265,1.958-4.242c-0.981,0-2.939-1.307-4.244-1.307v4.243
		c-0.981-0.979-1.958-2.936-0.981-5.222c-2.28,0.979-3.259,2.936-4.238,5.222C437.202,261.288,441.446,263.573,440.142,266.509z
		 M437.202,255.087c0.981,2.284,2.939,2.938,4.244,2.938c0.981-1.632,0.328-3.265-1.305-4.242
		C440.142,255.74,439.16,256.066,437.202,255.087z M442.428,305.018h-5.226l0.981,0.979c2.286-0.979,4.244,1.305,5.221-0.979
		l-0.977-0.98V305.018z M441.446,333.732c-1.305,0-3.263-0.98-3.263-2.281C439.16,330.47,442.428,331.451,441.446,333.732z
		 M444.386,246.603c-0.981,0.979-1.958,1.958-2.939,4.243c0-0.328-0.325-0.654-0.653-0.979c-0.323,0-0.323,0-0.651-0.328v2.286
		c0.979,0,2.286-0.654,3.263-2.286c2.285-0.978,2.285,2.286,0.981,3.265c1.304,0.979,1.304,2.284,2.286,2.284
		c0,0.326,0,0.326,0.323,0c0.328,0,0.653-0.328,0.653-1.305h-0.653c-0.323,0-0.323-0.326-0.323-0.979l1.954-0.979h-1.954
		c-0.982-4.243,4.238-0.979,6.524-0.979c-3.591-1.307-5.226-3.264-7.507-4.243c0.326-0.979,0.982-0.653,1.306-0.979
		c0.328,0,0.328,0,0.653-0.326c-0.977-0.981-2.935-2.937-5.221-1.958C442.428,243.667,443.079,244.97,444.386,246.603z
		 M448.626,228.327l-0.655,0.652c-0.322,0.328-0.647,0.328-1.299,0.328c0,1.305-0.982,2.286-0.982,3.265l0.982-0.979
		c-0.982,2.282-2.286,4.241-2.286,5.22c2.286,0,5.22,2.284,7.503,0.981c-3.591-0.981-1.96-3.918-3.263-6.201
		c-0.978,2.282,0.323,4.241-1.954,5.22c-0.328,0-0.328,0-0.656-0.326c-0.326-0.326-0.979-0.653-1.63-0.653
		c3.585-0.978,2.286-4.241,3.263-5.221h2.28c0-1.633,0.328-2.61,0.981-3.264c-2.284-0.979-2.284-3.263-0.981-4.24
		c-1.631,0-2.28,0.651-2.28,1.956C447.648,226.369,448.626,226.042,448.626,228.327z M444.386,298.49
		c2.286,1.305,3.263,2.286,5.543,3.262c2.286-0.976,3.921-1.957,6.204-1.957h-1.96v-3.263c-2.284,0-3.263,0.978-2.284,3.263
		C449.605,298.49,447.971,298.49,444.386,298.49z M447.648,241.053v2.286c0-0.652,0-0.979,0.322-0.979h0.655v-2.286
		c0.979,0,2.284,0.654,3.263,2.286c0-4.896-3.263-3.265-6.199-3.265L447.648,241.053z M447.648,266.509
		c0.978-0.979,3.262-1.957,5.548-0.979v4.244c-2.286,0-3.268-0.981-5.548-0.981l2.28-2.284H447.648z M450.91,263.573h0.979
		l1.308,0.979h-2.286V263.573z M453.196,242.36h1.958c-0.981-1.307-0.981-3.265-0.981-4.568c0.981,0,0.981-0.981,1.96-0.981
		c-2.937-0.979-5.549,3.263-1.96,3.263L453.196,242.36z M472.121,255.087c-2.284-2.284-4.24,0-5.22,0.979
		c0-2.284,0-4.242,0.979-6.528c-4.244,0-3.263,3.918-4.244,7.507c-2.283,0-7.504,0.979-8.482-3.263
		c-0.981,1.305-3.266,0.977-1.958,3.263h0.977c-0.977,3.263,4.243,4.896,0.981,7.507c1.305,1.303,2.286,1.957,3.262,1.957
		c-0.976-2.284,1.958-2.936,3.263-2.936c0-1.306-1.305-2.286-1.305-3.265h7.507v3.265c0.976-3.592,3.915-1.306,7.505-2.286v2.286
		l0.981-1.306v-0.979c0.326,0,0.326,0,0.654-0.328c0.323-0.326,0.977-0.652,1.631-0.652c-2.285,0.979-4.245,0-4.245-2.284
		c0.979,0,2.938,1.307,4.245,0l0.975,1.307c0.979-1.307,2.286-0.981,2.286-3.265h2.937c0-3.589-2.937-4.896-1.958-8.485h1.958
		c-0.979,0-4.244-3.265-4.244,0.979l-3.261-3.263v2.284c-2.284-2.284-5.224-3.265-5.224,0.979c-2.284,0-0.979-3.263-3.265-3.263
		c-2.934,0-0.976,4.241,1.307,5.548C470.163,251.824,470.817,253.457,472.121,255.087z M453.196,318.723
		c0.977,2.285,4.244,1.959,2.937,4.244c0,0.977,0.326,1.307,0.653,1.307c0.326,0.326,0.326,0.326,0.654,0l0.647-0.653
		c0.328-0.326,0.981-0.653,1.305-0.653v2.285c0-0.979,0.981-3.264,0.981-4.244c-0.981-1.307-1.958-1.307-2.934-2.285H453.196z
		 M458.416,214.621c0-1.956-0.65-2.282-2.283-1.306C456.133,214.295,456.786,214.621,458.416,214.621z M459.393,262.267
		c-2.28,0-1.952,0.327-1.952-1.959C459.72,260.308,459.393,259.981,459.393,262.267z M465.923,215.601h0.979v3.263
		c0-2.284,0.979-3.263,1.955-4.243v-0.653c0-0.326-0.648-0.653-0.976-1.629l-0.651,0.65c-0.328,0.326-0.656,0.326-1.307,0.326
		v-1.957c-2.286,0-4.244-0.979-6.53,0c-0.323,0-0.323,0-0.651-0.326c-0.325-0.327-0.976-0.653-1.301-0.653
		C459.393,213.314,466.901,209.074,465.923,215.601z M457.44,240.074c0.976-0.979,1.952-0.979,4.238-2.282h-3.263
		c0-0.328-0.328-0.981-0.65-1.307c-0.325-0.326-0.325-0.326-0.325-0.653C457.44,236.812,458.416,239.095,457.44,240.074z
		 M462.659,306.975l-2.285-0.979c-0.981,0.979-0.981,2.283-1.958,2.283c0.977,0,3.263,0.652,0.977,2.938h3.267l-0.98,2.284
		c2.939-0.979,1.958-4.242,1.958-6.526h0.981v-1.957h-0.981c-0.651,0-0.978,0.326-0.978,0.979c0-2.284-3.267-5.546-3.267-1.959
		C461.679,302.733,461.679,304.691,462.659,306.975z M460.374,319.701c2.285-0.979,1.305-4.244,0-2.938
		C458.088,317.744,459.393,319.701,460.374,319.701z M467.881,300.776c2.282-0.981,0.976-4.244,0-3.267
		C465.598,297.51,465.598,300.776,467.881,300.776z M468.856,259.331c-0.976,0-1.955-1.307-0.976-2.286
		C468.856,257.045,468.856,257.045,468.856,259.331z M472.121,236.16v0.652h-1.958v2.284h-2.282c2.282,0.979,4.24,0.979,6.526,0.979
		c0-1.63-0.653-2.282-2.286-2.282h0.979l1.307-1.96h0.979c-0.979,2.286-0.979,4.242-0.979,5.221
		c0.328,0.981,0.979,1.307,1.307,1.307c0.326,0.327,0.326,0.327,0.653,0l0.978-2.286c1.308,2.286,2.282,3.265,2.282,4.242
		c0.979,0,3.265,1.307,4.244-0.977c-2.285,0-4.244-0.652-5.219-2.286c0.975,0,3.261-0.979,4.239-0.979v2.286
		c0-3.591,1.306-6.528-2.286-7.506c0,0.978-0.979,0.978-0.979,1.957h2.286l0.979,0.981h-2.286c0.98,0,1.308,0.652,1.308,2.282
		h-2.286v-2.282c0,2.282-5.22,1.631-4.241-1.96c0.981,0.979,1.959,0.979,3.267,1.96c0-4.242-3.267-2.938-5.552-2.938
		C472.449,235.506,472.121,235.833,472.121,236.16z M468.856,264.552c0,0.978,1.307,3.262,2.285,4.241
		c0-1.631,0.654-2.284,1.959-2.284c0-0.979-0.979-0.979-0.979-1.957H468.856z M468.856,286.741 M473.101,248.561
		c3.593,0.978,4.244,3.917,6.526,7.506h-4.241v-2.284c0,0.977-0.979,1.305-3.265,1.305
		C473.101,252.803,470.817,250.845,473.101,248.561z M477.345,196.348l-0.651,1.303c-0.326,0.327-0.326,0.979-0.326,1.96
		c0.654-0.654,1.305-0.981,1.958-0.981h1.302c0,1.632-0.975,1.96-3.26,0.981l3.26,3.261c-2.282,0-5.22-0.976-7.506,0
		c0.979,2.286,5.224,0,7.506,0c0,0.981-0.975,1.96-0.975,3.265h0.975v0.979h2.286c0.979,0,0.979,0.978,1.958,1.958l0.979-0.98
		c0,0.98,1.308,0.98,1.308,2.286c0,0.979-0.979,4.242-3.266,2.936l0.979,1.306v-1.306c0.979,1.306,2.286,0.981,2.286,3.265h-1.308
		c-0.652,0.979-0.979,1.956-0.979,3.263c0.979-0.979,0.979-1.958,2.286-1.958h0.979c0.979-1.305,0.979-3.264,1.958-5.545
		l-1.958,2.282c0-1.306,0-3.263,0.979-4.242c0-1.958-0.653-3.917-1.958-5.547v2.284h-2.286c0.979-2.284,0.979-4.244,2.286-5.22
		h-5.552c2.286-1.307,3.266-3.267,3.266-5.548h-4.244H477.345z M474.735,218.536c0.325,0.328,0.325,0.328,0.65,0.328v3.265
		c2.286-2.286,1.308-5.549-2.285-4.244C473.754,217.884,474.407,218.209,474.735,218.536z M473.101,282.499
		c0,1.306,1.307,1.96,2.285,4.242c1.308-1.303,2.286-2.282,3.267-2.936c-2.285,0-3.267,0-4.245-2.285L473.101,282.499z
		 M478.652,243.339c-1.631-1.305-2.938-1.305-4.245,0C474.407,244.316,476.367,244.316,478.652,243.339z M480.605,248.561
		c1.308,0.978,0,2.285-0.979,3.264c-0.975,0.979-2.282-2.286-0.975-3.264H480.605z M479.627,189.167
		c-2.282,2.284-1.302,3.915,0.979,6.201c-0.325,0.326-0.325,0.326,0,0.651c0,0.328,0.328,0.328,1.308,0.328h0.979l-2.286-1.959
		c2.286-0.981,1.308-3.263,0-4.242h1.308v-0.979H479.627z M482.892,253.782 M502.472,315.132c0.326,0.325,0.326,0.325,0.653,0.325
		c3.265,2.287-4.567,2.287,0.979,3.266c0,3.59-4.246,0-5.221,0c0-0.979-1.305-0.979-1.305-1.96
		c-0.979,2.285-1.959,2.938-1.959,5.226c-0.98,0-2.285-0.654-3.265-2.287l0.979-0.979c-0.979,0-1.959,0.979-2.938,0.979v-1.957
		c-0.975-0.326-1.303-1.308-1.631-1.633l-0.65-0.654l0.979,3.266l-2.937-1.96c0.979,0.981,1.958,0.981,1.958,1.96l-1.958,0.979
		v-0.979c-1.308,0.979-1.308,2.285-2.286,3.266h3.265l-0.979,2.285l0.979,0.651c0.326,0.327,0.979,0.327,1.958,0.327
		c0-0.979-0.979-4.244-0.979-5.551c0,1.307,2.281,1.307,2.281,2.287l0.979-2.287c0,1.307,0.979,3.266,1.959,3.266
		c2.285,0,5.549,0,3.265,2.285l-0.979,0.978c3.591,0,0,0.981,0,2.284c0,0.977,0.979,0.977,1.959,1.956
		c0-0.979,1.305-0.979,2.279-1.956c-0.32,0.326-0.32,0.326-0.647,0c-0.327,0-0.327-0.328-0.327-1.303l0.975-0.981
		c-2.279,0-2.279-1.956-2.279-4.241l1.305,0.979c-1.305-0.979,0-3.266,0-4.244c0.975,0.979,1.956,2.285,4.241,2.285
		c0.979-1.307,4.244-1.307,4.244-2.285l-2.286-0.979c-0.652-0.652-0.979-1.633-0.979-3.264h0.979c-0.979,0-3.264-2.285-4.243,0
		C501.491,314.48,502.145,314.809,502.472,315.132z M493.335,334.713v2.283h-4.241c1.629,0.979,3.587,0.979,5.546,0
		c-0.979,0.979-1.305,0.979-2.284,1.307l-0.979,0.652l-0.979,0.98l-1.303-0.98h-1.958c0,3.592,0.979,6.204,0.979,8.488l2.281,2.281
		c-1.303,4.24,0.979,8.158,0,11.75c0.979,2.285,2.938,4.244,5.224,1.959v2.285c-0.98,0-2.285-0.328-3.265,1.957
		c2.284-2.285,4.244,0,6.528,0.98c2.282,1.301,2.936,3.26,5.221,4.24c0,1.305,0,3.258-0.979,4.238l1.958-0.98l2.286,0.98
		l-0.979-1.957h4.237c-1.3,0-3.258,0-4.237-2.281l0.979-0.98c-3.592-0.98-6.203-3.26-9.79-4.24c1.305-2.285,4.24-0.98,5.546-1.957
		c0-0.98-0.327-1.309-1.306-1.309c-2.281,1.309-5.22,2.285-6.199,0h0.979c-0.979-2.283,2.284-3.916,0-6.203v1.963h-1.96
		c0-2.287,2.285-6.205-1.305-8.486c0-0.981,1.305-1.959-0.979-3.26c-2.286-0.98-0.979-2.939-0.979-5.225
		c2.285,0.979,0.979,4.244,3.264,5.225c0.98-2.287,0.98-4.246,0.98-5.225c0,0.979,0.979,3.265,0.979,4.244
		c0.979-0.979,2.284-1.959,2.284-3.266c0.327,0.328,0.327,0.328,0.654,0.328c0.32,0.326,0.32,0,1.302,0.979
		c-0.653,0.652-0.981,1.635-0.981,2.939v-1.96c-3.587,0-3.259,1.96-4.238,4.238h4.238l0.981-0.978c0,2.287,4.243,3.592,3.265,0
		c2.285,0,3.265-1.301,4.242-1.301c0,1.301,0.98,2.278,0.98,3.26c1.3,0,1.3,1.305,2.281,2.281c-0.981-0.977,0-1.953,0-4.24
		c-0.981-3.261-6.525,0-7.504-4.24c-0.979,0.979-2.285,2.284-3.265,0h2.285v-3.265c-1.306-2.284-1.306-4.244-2.285-6.53v4.246
		c-0.981,0-3.261,0-4.24,1.308c0.979-2.288,0.979-4.247,0-5.554c-0.328,0.328-0.979,0.328-1.307,0.328
		c-0.979,0.325-0.979,0-1.958,0.979c1.305-1.307,1.305-2.283,1.305-3.264c-1.305,0-2.284,0.98-3.264,0.98H493.335z M489.094,304.037
		c2.282,0.98,3.587-3.261,1.303-3.261C488.115,300.776,486.808,302.733,489.094,304.037z M493.335,296.532h-1.959
		c1.305,1.305,2.285,1.958,3.264,1.958c0-0.98,0-3.263,0.98-4.242c0.979,0.979,0.979,3.262,1.959,4.242
		c1.632-2.284,2.934-2.284,4.24,0h-1.961l0.981,1.305c0.326,0.981-0.327,0.981-1.302,0.655l-1.959-0.655h-4.244
		c1.632,1.307,2.611,1.631,3.265,0.981c0.979,0,3.259,0.976,3.259,1.957c0.328,0,0.981,0.326,1.308,0.652l0.653,0.652
		c0-1.304,1.306-2.285,1.306-3.261c-1.306-2.286-2.285-3.267-2.285-5.549c-1.302,1.631-1.956,1.305-1.956-0.979
		c0,0.653-0.326,1.305-0.654,1.632l-0.65,0.652c0-2.284-1.959-4.57-4.244-2.284c-0.979-0.979-1.959-0.979-2.938-1.958
		C489.094,293.595,493.985,294.248,493.335,296.532z M494.64,244.316c0,0.981,0.98,0.981,1.96,2.286h-3.265
		c2.285,2.284-0.654,2.936-2.938,4.243h5.224l-2.285,0.979l-1.959,0.979c0.979,0.979,1.959,2.284,4.244,0.979v3.263
		c0.979-0.979,2.938-3.263,5.22-3.263c-0.981-2.286-0.981-2.937-0.981-5.222l1.961-1.958h-1.961c0.981-1.305,0-3.263-0.975-4.242
		c4.241,0,0.975-3.265-1.305-3.265C496.6,241.381,495.62,243.339,494.64,244.316z M493.335,379.42c0,3.592,3.265,3.918,3.265,7.508
		h0.979c3.261,1.635-1.633,0.98-0.979,3.268l2.284-1.307c0.975,2.279,2.936,1.307,5.221,1.307c-1.633,0-2.285,0.648-2.285,1.953
		l0.652,0.654l1.633,1.633h-2.285c-0.979-1.307-0.979-2.287-1.961-2.287v0.98h-2.279l1.305,3.258l0.975-0.977l3.267,3.264v-2.287
		v4.246v3.266c0.979,0,1.958,0.977,3.265,0.977c-1.307-0.977-4.898-4.242-1.307-3.262c1.307,1.307,1.959,1.307,4.244,2.285
		c-0.654,0-0.98,0.652-0.98,2.283h2.28l-1.3,0.98h3.261c-0.979-0.98-1.961-2.287-3.261-3.264h2.281
		c-0.981-0.979-2.281-0.979-2.281-2.285h1.3v-0.98c-2.28,0-2.28-3.264-2.28-4.246h0.98c0.979,0,1.3,0.33,1.3,0.982v-0.982h-1.3
		c0-0.977,1.3-1.951,2.281-3.258c-0.981,0-1.954,1.307-4.239,2.281c0-0.975,0.978-2.281,0.978-3.262
		c-2.283,0-3.264-1.305-3.264-4.24c-0.979,0.98-3.264,0.98-3.264,0s2.285-0.98,3.264-0.98c0-0.979-0.979-0.979-1.958-2.285
		c0-0.977-1.306-1.957-2.285-2.936h-4.24v1.959c0-0.654-0.328-0.98-0.653-0.98h-0.326c0.979-2.611,2.285-4.57,3.264-5.551h4.241
		c0-0.98-1.306-0.98-2.285-1.957c-1.302,1.307-2.282,1.957-3.261,1.957v-2.934c1.305,0,3.261,0.977,4.24,0.977
		c-0.979-2.281-3.914-4.242-6.199-5.221c-0.98-1.301-1.959-3.588-4.244-1.301C491.376,372.244,491.049,375.83,493.335,379.42z
		 M493.335,313.501c2.285-0.979-0.979-3.263-1.959-2.284C491.376,312.85,492.027,313.501,493.335,313.501z M492.355,357.229
		 M494.64,251.824 M500.84,384.643c-0.981,1.307-4.24,1.307-3.261-0.977C498.884,382.686,501.819,383.666,500.84,384.643z
		 M503.125,329.49c0,2.287,0.652,3.262,1.958,3.262v-3.262c0-2.605-4.243-0.65-3.264-4.238c-2.281,0.978-0.979,3.262,0,4.238
		H503.125z M500.84,240.074c0.979,0,3.265,0.979,0.979,0.979v7.507c1.633-0.979,2.285-2.611,2.285-4.244
		c3.589,0.981,1.959-2.935,4.242-5.221c0,2.286,0.98,6.202-1.957,6.202c0,1.305,0.979,2.284,0.979,3.263
		c-2.286-2.284-3.265,0-4.244,0.978c1.958,1.307,1.958,2.286,0,3.265c0.979,2.284,0.979,4.242,3.265,6.528h-1.307l-0.979-1.307
		h-0.979l0.979,2.284c-0.327,0-0.979,0-1.307-0.327c-0.979-0.326-1.632-0.65-1.958-0.65c0,0.65,0,0.977,0.326,1.303l0.653,0.653
		c0.979-0.979,2.611-0.979,4.57,0c-1.307,0.979-1.307,2.286-2.285,3.265c2.285-2.285,5.223,0,7.504-2.285
		c0-2.936-0.981-5.875-0.981-9.464c-1.3,0-3.258,0-4.237,0.979c0.979-2.286,0.979-4.244,1.957-5.222l3.262,3.264v-3.264
		c0.653,0,1.305,0.326,1.958,0.978l-0.979-1.957c0.979,0,0.979-0.979,2.283-0.979h-2.283v-6.528h-3.261l1.3-0.979l0.981-1.303
		v-0.981c-3.587-0.979-6.197-0.979-9.789-0.979C501.166,236.485,500.84,237.792,500.84,240.074z M500.84,343.199 M501.819,333.732
		 M508.347,353.965c0.98-0.977-0.978-3.263-1.957-2.281C505.083,353.965,506.063,356.25,508.347,353.965z M507.369,234.854
		c0.324,0.326,0.324,0.326,0.652,0.326c0.651,0,0.979,0,1.306-0.326c1.3,0.978,3.261,0.978,4.239,0.978
		c-0.979-2.282,0-4.241,0-5.221l-1.958-1.305h3.263c-1.305-2.284-3.263-1.958-4.244-0.979
		C510.627,231.264,509.654,233.225,507.369,234.854z M509.327,313.501c0,0.653,0.327,0.979,0.652,0.979h0.647l1.961-1.959
		c-0.979,0-1.961-1.305-3.261-2.283V313.501z M513.566,197.65c0,2.286-1.958,4.896-1.958,7.181h-0.981
		c0,3.589,0.981,6.2,0.981,8.483c-0.981,0-2.281,1.306-0.981,2.286c0.981,0,0.655-0.98,2.939-2.286v2.286
		c1.305-2.286,1.305-2.936,1.305-5.222c-1.63-1.632-1.63-2.939,0-4.242c0-3.591-1.305-5.221-1.305-7.507
		c0-2.282,0-5.222-2.939-4.241C511.935,195.694,512.913,196.673,513.566,197.65z M524.336,332.752c0,0.98-0.979,0.98-0.979,1.961
		c0,0.977,0.979,2.283,0.979,3.263c-2.283,0-5.221-0.979-6.525,1.96v-2.939c2.286-1.307,3.262-1.307,5.547-1.307
		c-2.285-0.977-5.22,1.307-7.505,0c0,2.286,0.98,3.266,1.958,4.246h-0.978c0.652,0.979,1.305,1.631,2.282,2.284h-1.305
		c0,0.979,1.305,0.979,1.305,1.958v-2.935c0-2.288,2.938-3.593,4.242-1.308h-2.285c0,0.326,0,0.326,0.325,0.651
		c0.327,0.327,0.655,0.979,0.655,1.633h-0.655c-0.325,0-0.652,0.327-1.301,0.979h8.482h-3.264c1.306-1.305,2.284-1.956,3.264-1.956
		c2.286,0,3.588-0.329,4.242-1.308c-2.283,0-2.936-0.98-5.222-0.98v-1.959l-2.284-3.264c2.284,0.98,2.939,1.957,5.223,1.957
		c1.303,0,3.261,0,4.567,1.307v-3.264h-1.307v1.957c-2.286-0.977-4.892-1.957-8.483-2.938c0-0.975-0.652-1.953-1.958-3.262
		C523.357,330.47,524.336,331.451,524.336,332.752z M522.053,367.676c-0.98-0.98-2.938-0.98-4.242-0.98
		c1.305,0.98,1.305,1.961,2.286,1.961c1.956-0.98,3.261-0.654,4.239,1.301c-2.283-1.301-4.239-0.326-5.221,1.959
		c2.938-0.98,5.874-2.285,9.464,0c-2.282,0.98-2.938,0.98-5.222,0.98v-1.961c-4.242-0.979-1.305,4.242-4.242,3.266v-3.266
		c-2.282,0-1.305,3.266-1.305,4.242c1.305,0,2.286,3.264,0,4.242c1.96,1.959-1.958,6.857,3.262,4.246l-1.302,1.631l-0.655,0.652
		c0,2.285,1.957,4.246,1.957,5.219l-0.648,0.654c-0.327,0.326-0.653,0.326-1.309,0.326c2.282,0.98,0.981,2.287,0,3.262
		c0.981,0.977,1.957,2.938,0.981,5.223c0.327,0,0.648,0,0.976-0.328c0.98-0.326,1.632-0.65,2.285-0.65v1.959
		c0.979-0.98,0.979-1.959,1.958-2.939c0.981,0,0.981-1.305,2.284-1.305h-2.284v-1.959h-0.979l0.979-0.975h2.284
		c-1.303-1.307-1.303-2.287-2.284-3.268h3.264l-0.652,0.654c-0.327,0.326-0.327,0.652-0.327,1.307h2.938c0-2.285,2.283,0,3.261,0
		c1.307,1.307,3.267,1.307,4.244,2.281c0-2.281-0.978-3.262-0.978-4.242h0.978v-2.279c-0.978,0-2.938,1.307-2.938,0
		c-1.307-2.285-3.265,0-4.567,0c2.283-2.285,3.261-4.246,5.547-4.246v2.285c0-2.936,0.326-4.566,0.98-5.221
		c-1.309-1.633-1.96-3.592-1.96-5.553c1.96,0,2.938,0.98,2.938,3.266v-4.242c-0.978,2.283-2.938,0-5.222,0.977l0.978-0.977h2.286
		l-2.286-2.281h3.267v-2.939c0,1.307-0.654,1.959-1.96,1.959c-1.307,0-3.265-0.98-4.567-0.98c0,2.285-1.959,1.961-1.959,3.266
		c-0.652,0.648-0.324,1.629,0.979,2.934c0.979,1.307,1.954,1.307,4.24,2.285h-4.24c-0.979-0.979-1.959-2.285-3.262-3.266
		c1.303-2.279,1.958-4.238,4.241-5.219c-0.979-0.979-6.527-2.607-2.938-4.24h-1.303c0-0.977,0-3.262,1.303-4.242
		c-1.303-0.979-2.284-0.979-3.264-2.283v3.264c-0.979,0-2.283-0.98-3.264-0.98c0-1.631-0.327-2.283-0.976-2.283
		c-3.592,0-0.981,3.264-0.981,5.549C519.771,365.719,520.745,366.369,522.053,367.676z M522.053,266.509l-1.308,1.632l-0.648,0.652
		c0,2.284,0.976,3.263,0.976,4.244h2.285c-1.305-0.981-3.261-1.96-2.285-4.244c0.98,0.981,2.285,0.981,3.264,2.284
		c0-2.284,0-4.242-2.283-6.525c0,1.303-0.655,1.957-1.956,1.957c-0.326,0-0.326,0-0.653-0.326c-0.328-0.328-0.979-0.653-1.633-0.653
		C519.115,266.509,519.771,267.814,522.053,266.509z M520.097,248.561c-2.286,0.978,0,2.936-0.981,5.222
		c0,2.284-1.63,6.526,1.957,7.505c0-1.307-0.327-2.284-0.976-3.263c0.976,1.307,1.956,2.284,3.261,3.263
		c0-3.589-1.305-6.201-1.305-10.442c0,1.304-0.655,1.958-1.956,1.958c0-0.326,0.648-1.633,1.956-3.265
		c0-2.282-0.98-4.241-1.956-4.241V248.561z M524.336,263.573c0-2.286-4.239-2.286-5.221-1.306
		C519.771,263.246,521.397,263.573,524.336,263.573z M520.097,351.684v3.262l0.648,0.652c0.327,0.325,0.652,0.325,1.308,0.325
		c2.283,0,3.263-0.978,5.547-1.958c-2.284,0-3.264,0.98-5.547,0.98v-3.262H520.097z M523.357,395.41
		c-1.305,0.977-2.285,0-1.305-2.281C524.336,393.129,524.336,393.129,523.357,395.41z M526.297,387.908 M532.821,384.643
		c-0.98,2.285-3.263,0.328-3.263-1.957C530.538,382.686,533.799,382.361,532.821,384.643z M530.538,351.684 M535.105,381.707
		c0.979-1.307,0.979,2.936,0,1.959V381.707z M539.349,361.475c0.98-1.305,0-3.268-1.306-2.287
		C537.065,360.17,538.043,362.453,539.349,361.475z M540.329,393.129h4.239v-0.654c0-0.326-0.651-0.326-0.979-1.307
		c-0.325,0-0.979,0-1.305-0.324c-0.975-0.326-1.629-0.648-1.955-0.648V393.129z"/>
</g>
</svg>
